<?xml version="1.0" encoding="UTF-8" standalone="no"?>
<svg
   xmlns:dc="http://purl.org/dc/elements/1.1/"
   xmlns:cc="http://creativecommons.org/ns#"
   xmlns:rdf="http://www.w3.org/1999/02/22-rdf-syntax-ns#"
   xmlns:svg="http://www.w3.org/2000/svg"
   xmlns="http://www.w3.org/2000/svg"
   xmlns:sodipodi="http://sodipodi.sourceforge.net/DTD/sodipodi-0.dtd"
   xmlns:inkscape="http://www.inkscape.org/namespaces/inkscape"
   fill="#000000"
   height="24"
   viewBox="0 0 24 24"
   width="24"
   id="svg4227"
   version="1.1"
   inkscape:version="0.91 r13725"
   sodipodi:docname="icon_walking.svg">
  <metadata
     id="metadata4237">
    <rdf:RDF>
      <cc:Work
         rdf:about="">
        <dc:format>image/svg+xml</dc:format>
        <dc:type
           rdf:resource="http://purl.org/dc/dcmitype/StillImage" />
        <dc:title></dc:title>
      </cc:Work>
    </rdf:RDF>
  </metadata>
  <defs
     id="defs4235" />
  <sodipodi:namedview
     pagecolor="#ffffff"
     bordercolor="#666666"
     borderopacity="1"
     objecttolerance="10"
     gridtolerance="10"
     guidetolerance="10"
     inkscape:pageopacity="0"
     inkscape:pageshadow="2"
     inkscape:window-width="1855"
     inkscape:window-height="1056"
     id="namedview4233"
     showgrid="false"
     inkscape:zoom="9.5729167"
     inkscape:cx="-6.1616239"
     inkscape:cy="5.6873677"
     inkscape:window-x="65"
     inkscape:window-y="24"
     inkscape:window-maximized="1"
     inkscape:current-layer="g4261" />
  <path
     d="M0 0h24v24H0z"
     fill="none"
     id="path4229" />
  <path
     d="m 9.5,5.5 c 1.1,0 2,-0.9 2,-2 0,-1.1 -0.9,-2 -2,-2 -1.1,0 -2,0.9 -2,2 0,1.1 0.9,2 2,2 z M 5.8,8.9 3,23 l 2.1,0 1.8,-8 2.1,2 0,6 2,0 0,-7.5 -2.1,-2 0.6,-3 C 10.8,12 12.8,13 15,13 l 0,-2 C 13.1,11 11.5,10 10.7,8.6 L 9.7,7 C 9.3,6.4 8.7,6 8,6 7.7,6 7.5,6.1 7.2,6.1 L 2,8.3 2,13 4,13 4,9.6 5.8,8.9"
     id="path4231"
     inkscape:connector-curvature="0"
     style="fill:#c88719;fill-opacity:1" />
  <g
     style="fill:#000000"
     id="g4261"
     transform="matrix(0.53939151,0,0,0.53939151,12.295272,10.344046)">
    <path
       id="path4251"
       d="M 0,0 24,0 24,24 0,24 Z"
       inkscape:connector-curvature="0"
       style="fill:none" />
    <path
       id="path4253"
       d="M 12,4 10.59,5.41 16.17,11 4,11 4,13 16.17,13 10.59,18.59 12,20 20,12 Z"
       inkscape:connector-curvature="0"
       style="fill:#c88719;fill-opacity:1" />
  </g>
</svg>
