<?xml version="1.0" encoding="UTF-8" standalone="no"?>
<svg
   xmlns:dc="http://purl.org/dc/elements/1.1/"
   xmlns:cc="http://creativecommons.org/ns#"
   xmlns:rdf="http://www.w3.org/1999/02/22-rdf-syntax-ns#"
   xmlns:svg="http://www.w3.org/2000/svg"
   xmlns="http://www.w3.org/2000/svg"
   xmlns:xlink="http://www.w3.org/1999/xlink"
   xmlns:sodipodi="http://sodipodi.sourceforge.net/DTD/sodipodi-0.dtd"
   xmlns:inkscape="http://www.inkscape.org/namespaces/inkscape"
   fill="#000000"
   height="36"
   viewBox="0 0 24 24"
   width="36"
   id="svg4322"
   version="1.1"
   inkscape:version="0.91 r13725"
   sodipodi:docname="icon_add_photo.svg"
   inkscape:export-filename="/home/pablo/Desktop/Projects/GeoApp/Public/www/css/assets/sidebar-icons/icon_add_photo"
   inkscape:export-xdpi="90"
   inkscape:export-ydpi="90">
  <metadata
     id="metadata4334">
    <rdf:RDF>
      <cc:Work
         rdf:about="">
        <dc:format>image/svg+xml</dc:format>
        <dc:type
           rdf:resource="http://purl.org/dc/dcmitype/StillImage" />
        <dc:title />
      </cc:Work>
    </rdf:RDF>
  </metadata>
  <sodipodi:namedview
     pagecolor="#ffffff"
     bordercolor="#666666"
     borderopacity="1"
     objecttolerance="10"
     gridtolerance="10"
     guidetolerance="10"
     inkscape:pageopacity="0"
     inkscape:pageshadow="2"
     inkscape:window-width="1855"
     inkscape:window-height="1056"
     id="namedview4332"
     showgrid="false"
     inkscape:zoom="6.5555556"
     inkscape:cx="18"
     inkscape:cy="18"
     inkscape:window-x="65"
     inkscape:window-y="24"
     inkscape:window-maximized="1"
     inkscape:current-layer="svg4322" />
  <defs
     id="defs4324">
    <path
       d="M24 24H0V0h24v24z"
       id="a" />
  </defs>
  <clipPath
     id="b">
    <use
       overflow="visible"
       xlink:href="#a"
       id="use4328" />
  </clipPath>
  <path
     clip-path="url(#b)"
     d="M 3,4 3,1 5,1 5,4 8,4 8,6 5,6 5,9 3,9 3,6 0,6 0,4 3,4 Z M 6,10 6,7 9,7 9,4 16,4 17.83,6 21,6 c 1.1,0 2,0.9 2,2 l 0,12 c 0,1.1 -0.9,2 -2,2 L 5,22 C 3.9,22 3,21.1 3,20 l 0,-10 3,0 z m 7,9 c 2.76,0 5,-2.24 5,-5 0,-2.76 -2.24,-5 -5,-5 -2.76,0 -5,2.24 -5,5 0,2.76 2.24,5 5,5 z M 9.8,14 c 0,1.77 1.43,3.2 3.2,3.2 1.77,0 3.2,-1.43 3.2,-3.2 0,-1.77 -1.43,-3.2 -3.2,-3.2 -1.77,0 -3.2,1.43 -3.2,3.2 z"
     id="path4330"
     style="fill:#fb8c00;fill-opacity:1"
     inkscape:connector-curvature="0"
     transform="matrix(0.62227603,0,0,0.62227603,4.3930591,4.547215)" />
</svg>
