<?xml version="1.0" encoding="UTF-8" standalone="no"?>
<svg
   xmlns:dc="http://purl.org/dc/elements/1.1/"
   xmlns:cc="http://creativecommons.org/ns#"
   xmlns:rdf="http://www.w3.org/1999/02/22-rdf-syntax-ns#"
   xmlns:svg="http://www.w3.org/2000/svg"
   xmlns="http://www.w3.org/2000/svg"
   xmlns:xlink="http://www.w3.org/1999/xlink"
   xmlns:sodipodi="http://sodipodi.sourceforge.net/DTD/sodipodi-0.dtd"
   xmlns:inkscape="http://www.inkscape.org/namespaces/inkscape"
   fill="#000000"
   height="48"
   viewBox="0 0 24 24"
   width="48"
   id="svg2"
   version="1.1"
   inkscape:version="0.91 r13725"
   sodipodi:docname="green_marker.svg">
  <metadata
     id="metadata14">
    <rdf:RDF>
      <cc:Work
         rdf:about="">
        <dc:format>image/svg+xml</dc:format>
        <dc:type
           rdf:resource="http://purl.org/dc/dcmitype/StillImage" />
      </cc:Work>
    </rdf:RDF>
  </metadata>
  <sodipodi:namedview
     pagecolor="#ffffff"
     bordercolor="#666666"
     borderopacity="1"
     objecttolerance="10"
     gridtolerance="10"
     guidetolerance="10"
     inkscape:pageopacity="0"
     inkscape:pageshadow="2"
     inkscape:window-width="748"
     inkscape:window-height="480"
     id="namedview12"
     showgrid="false"
     inkscape:zoom="4.9166667"
     inkscape:cx="23.223114"
     inkscape:cy="15.864407"
     inkscape:window-x="960"
     inkscape:window-y="191"
     inkscape:window-maximized="0"
     inkscape:current-layer="svg2" />
  <defs
     id="defs4">
    <path
       d="M0 0h24v24H0V0z"
       id="a" />
    <clipPath
       id="b-3">
      <use
         overflow="visible"
         xlink:href="#a"
         id="use8-6" />
    </clipPath>
  </defs>
  <clipPath
     id="b">
    <use
       overflow="visible"
       xlink:href="#a"
       id="use8" />
  </clipPath>
  <rect
     style="opacity:1;fill:#ffffff;fill-opacity:1;stroke:#e6e6e6;stroke-width:0.02648021;stroke-linecap:square;stroke-linejoin:miter;stroke-miterlimit:4;stroke-dasharray:none;stroke-opacity:1"
     id="rect4136"
     width="8.5418921"
     height="11.287656"
     x="7.729054"
     y="3.4578674" />
  <path
     clip-path="url(#b-3)"
     d="M 12,2 C 8.14,2 5,5.14 5,9 c 0,5.25 7,13 7,13 0,0 7,-7.75 7,-13 0,-3.86 -3.14,-7 -7,-7 z m 0,2 c 1.1,0 2,0.9 2,2 0,1.11 -0.9,2 -2,2 -1.1,0 -2,-0.89 -2,-2 0,-1.1 0.9,-2 2,-2 z m 0,10 C 10.33,14 8.86,13.15 8,11.85 8.02,10.53 10.67,9.8 12,9.8 c 1.33,0 3.98,0.73 4,2.05 -0.86,1.3 -2.33,2.15 -4,2.15 z"
     id="path10"
     style="fill:#7fd856;fill-opacity:1"
     inkscape:connector-curvature="0"
     transform="translate(-0.10169491,-0.30508475)" />
</svg>
