<?xml version="1.0" encoding="UTF-8" standalone="no"?>
<svg
   xmlns:dc="http://purl.org/dc/elements/1.1/"
   xmlns:cc="http://creativecommons.org/ns#"
   xmlns:rdf="http://www.w3.org/1999/02/22-rdf-syntax-ns#"
   xmlns:svg="http://www.w3.org/2000/svg"
   xmlns="http://www.w3.org/2000/svg"
   xmlns:sodipodi="http://sodipodi.sourceforge.net/DTD/sodipodi-0.dtd"
   xmlns:inkscape="http://www.inkscape.org/namespaces/inkscape"
   fill="#000000"
   height="48"
   viewBox="0 0 24 24"
   width="48"
   id="svg4186"
   version="1.1"
   inkscape:version="0.91 r13725"
   sodipodi:docname="transparent.svg">
  <metadata
     id="metadata4196">
    <rdf:RDF>
      <cc:Work
         rdf:about="">
        <dc:format>image/svg+xml</dc:format>
        <dc:type
           rdf:resource="http://purl.org/dc/dcmitype/StillImage" />
        <dc:title></dc:title>
      </cc:Work>
    </rdf:RDF>
  </metadata>
  <defs
     id="defs4194" />
  <sodipodi:namedview
     pagecolor="#ffffff"
     bordercolor="#666666"
     borderopacity="1"
     objecttolerance="10"
     gridtolerance="10"
     guidetolerance="10"
     inkscape:pageopacity="0"
     inkscape:pageshadow="2"
     inkscape:window-width="1855"
     inkscape:window-height="1056"
     id="namedview4192"
     showgrid="false"
     inkscape:zoom="19.145833"
     inkscape:cx="14.964091"
     inkscape:cy="24"
     inkscape:window-x="65"
     inkscape:window-y="24"
     inkscape:window-maximized="1"
     inkscape:current-layer="svg4186" />
  <path
     d="M0 0h24v24H0z"
     fill="none"
     id="path4190" />
  <path
     style="opacity:1;fill:none;fill-opacity:1;stroke:#ffffff;stroke-width:0.02873271;stroke-linecap:square;stroke-linejoin:miter;stroke-miterlimit:4;stroke-dasharray:none;stroke-opacity:1"
     id="path4198"
     sodipodi:type="arc"
     sodipodi:cx="12.013057"
     sodipodi:cy="12.026115"
     sodipodi:rx="12.011691"
     sodipodi:ry="11.972519"
     sodipodi:start="0"
     sodipodi:end="6.2831679"
     d="M 24.024748,12.026115 A 12.011691,11.972519 0 0 1 12.013109,23.998634 12.011691,11.972519 0 0 1 0.00136566,12.02622 12.011691,11.972519 0 0 1 12.0129,0.0535965 12.011691,11.972519 0 0 1 24.024748,12.025907 l -12.011691,2.08e-4 z" />
  <path
     inkscape:connector-curvature="0"
     d="m 11.882481,11.725789 c 2.21,0 4,-1.7900002 4,-4.0000002 0,-2.21 -1.79,-4 -4,-4 -2.2100001,0 -4.0000001,1.79 -4.0000001,4 0,2.21 1.79,4.0000002 4.0000001,4.0000002 z m 0,2 c -2.6700001,0 -8.0000001,1.34 -8.0000001,4 l 0,2 16.0000011,0 0,-2 c 0,-2.66 -5.330001,-4 -8.000001,-4 z"
     id="path4188"
     style="fill:none" />
</svg>
