<?xml version="1.0" encoding="UTF-8" standalone="no"?>
<svg
   xmlns:dc="http://purl.org/dc/elements/1.1/"
   xmlns:cc="http://creativecommons.org/ns#"
   xmlns:rdf="http://www.w3.org/1999/02/22-rdf-syntax-ns#"
   xmlns:svg="http://www.w3.org/2000/svg"
   xmlns="http://www.w3.org/2000/svg"
   xmlns:sodipodi="http://sodipodi.sourceforge.net/DTD/sodipodi-0.dtd"
   xmlns:inkscape="http://www.inkscape.org/namespaces/inkscape"
   fill="#000000"
   height="48"
   viewBox="0 0 24 24"
   width="48"
   id="svg4982"
   version="1.1"
   inkscape:version="0.91 r13725"
   sodipodi:docname="group_placeholder.svg">
  <metadata
     id="metadata4992">
    <rdf:RDF>
      <cc:Work
         rdf:about="">
        <dc:format>image/svg+xml</dc:format>
        <dc:type
           rdf:resource="http://purl.org/dc/dcmitype/StillImage" />
        <dc:title></dc:title>
      </cc:Work>
    </rdf:RDF>
  </metadata>
  <defs
     id="defs4990" />
  <sodipodi:namedview
     pagecolor="#ffffff"
     bordercolor="#666666"
     borderopacity="1"
     objecttolerance="10"
     gridtolerance="10"
     guidetolerance="10"
     inkscape:pageopacity="0"
     inkscape:pageshadow="2"
     inkscape:window-width="1855"
     inkscape:window-height="1056"
     id="namedview4988"
     showgrid="false"
     inkscape:zoom="13.906433"
     inkscape:cx="27.420277"
     inkscape:cy="23.377368"
     inkscape:window-x="65"
     inkscape:window-y="24"
     inkscape:window-maximized="1"
     inkscape:current-layer="svg4982" />
  <path
     d="M0 0h24v24H0z"
     fill="none"
     id="path4986" />
  <path
     style="opacity:1;fill:#ffffff;fill-opacity:1;stroke:#ffffff;stroke-width:0.02832322;stroke-linecap:square;stroke-linejoin:miter;stroke-miterlimit:4;stroke-dasharray:none;stroke-opacity:1"
     id="path5543"
     sodipodi:type="arc"
     sodipodi:cx="11.990852"
     sodipodi:cy="11.973192"
     sodipodi:rx="11.953736"
     sodipodi:ry="12.025646"
     sodipodi:start="0"
     sodipodi:end="6.2831679"
     d="M 23.944589,11.973192 A 11.953736,12.025646 0 0 1 11.990904,23.998838 11.953736,12.025646 0 0 1 0.03711605,11.973297 11.953736,12.025646 0 0 1 11.990696,-0.05245399 11.953736,12.025646 0 0 1 23.944589,11.972983 l -11.953737,2.09e-4 z" />
  <path
     style="opacity:1;fill:#e6e6e6;fill-opacity:1;stroke:#e6e6e6;stroke-width:0.03155837;stroke-linecap:square;stroke-linejoin:miter;stroke-miterlimit:4;stroke-dasharray:none;stroke-opacity:1"
     id="path5551"
     sodipodi:type="arc"
     sodipodi:cx="12.00883"
     sodipodi:cy="17.797834"
     sodipodi:rx="8.5903654"
     sodipodi:ry="3.2511106"
     sodipodi:start="0"
     sodipodi:end="6.2831679"
     d="m 20.599195,17.797834 a 8.5903654,3.2511106 0 0 1 -8.590328,3.251111 8.5903654,3.2511106 0 0 1 -8.5904023,-3.251082 8.5903654,3.2511106 0 0 1 8.5902533,-3.251139 8.5903654,3.2511106 0 0 1 8.590477,3.251054 l -8.590365,5.6e-5 z" />
  <path
     inkscape:connector-curvature="0"
     d="m 11.900966,2.2582607 c -3.0152563,0 -5.4539524,2.4386961 -5.4539524,5.453953 0,4.0904653 5.4539524,10.1287703 5.4539524,10.1287703 0,0 5.453954,-6.038305 5.453954,-10.1287703 0,-3.0152569 -2.438697,-5.453953 -5.453954,-5.453953 z m 0,7.401793 c -1.075207,0 -1.9478395,-0.872632 -1.9478395,-1.94784 0,-1.0752079 0.8726325,-1.9478404 1.9478395,-1.9478404 1.075208,0 1.94784,0.8726325 1.94784,1.9478404 0,1.075208 -0.872632,1.94784 -1.94784,1.94784 z"
     id="path4984"
     style="fill:#b3b3b3" />
</svg>
